<svg width="517" height="58" viewBox="0 0 517 58" fill="none" xmlns="http://www.w3.org/2000/svg">
<path d="M496.959 57.024C493.204 57.024 489.812 56.288 486.783 54.816C483.775 53.3227 481.386 51.2747 479.615 48.672C477.866 46.048 476.991 43.0293 476.991 39.616C476.991 36.2027 477.866 33.1947 479.615 30.592C481.386 27.968 483.775 25.92 486.783 24.448C489.812 22.9547 493.204 22.208 496.959 22.208C500.714 22.208 504.095 22.9547 507.103 24.448C510.132 25.92 512.522 27.968 514.271 30.592C516.042 33.1947 516.927 36.2027 516.927 39.616C516.927 43.0293 516.042 46.048 514.271 48.672C512.522 51.2747 510.132 53.3227 507.103 54.816C504.095 56.288 500.714 57.024 496.959 57.024ZM496.959 45.76C498.047 45.76 499.05 45.504 499.967 44.992C500.884 44.4587 501.61 43.7333 502.143 42.816C502.698 41.8987 502.975 40.832 502.975 39.616C502.975 38.4 502.698 37.3333 502.143 36.416C501.61 35.4773 500.884 34.752 499.967 34.24C499.05 33.728 498.047 33.472 496.959 33.472C495.871 33.472 494.868 33.728 493.951 34.24C493.034 34.752 492.298 35.4773 491.743 36.416C491.21 37.3333 490.943 38.4 490.943 39.616C490.943 40.832 491.21 41.8987 491.743 42.816C492.298 43.7333 493.034 44.4587 493.951 44.992C494.868 45.504 495.871 45.76 496.959 45.76Z" fill="white"/>
<path d="M459.752 56C458.095 56 456.752 54.6568 456.752 53V26.232C456.752 24.5751 458.095 23.232 459.752 23.232H467.064C468.721 23.232 470.064 24.5751 470.064 26.232V53C470.064 54.6568 468.721 56 467.064 56H459.752ZM463.408 16.224C462 16.224 460.709 15.8826 459.536 15.2C458.363 14.496 457.424 13.5573 456.72 12.384C456.037 11.2106 455.696 9.91997 455.696 8.51197C455.696 7.10397 456.037 5.82397 456.72 4.67197C457.424 3.49864 458.363 2.57064 459.536 1.88797C460.709 1.18397 462 0.83197 463.408 0.83197C464.816 0.83197 466.096 1.18397 467.248 1.88797C468.421 2.57064 469.349 3.49864 470.032 4.67197C470.736 5.82397 471.088 7.10397 471.088 8.51197C471.088 9.91997 470.736 11.2106 470.032 12.384C469.349 13.5573 468.421 14.496 467.248 15.2C466.096 15.8826 464.816 16.224 463.408 16.224Z" fill="white"/>
<path d="M436.377 56C434.72 56 433.377 54.6569 433.377 53V3.96002C433.377 2.30317 434.72 0.960022 436.377 0.960022H443.689C445.346 0.960022 446.689 2.30317 446.689 3.96002V53C446.689 54.6569 445.346 56 443.689 56H436.377Z" fill="white"/>
<path d="M406.647 57.024C402.892 57.024 399.5 56.288 396.47 54.816C393.462 53.3227 391.073 51.2747 389.303 48.672C387.553 46.048 386.678 43.0293 386.678 39.616C386.678 36.2027 387.553 33.1947 389.303 30.592C391.073 27.968 393.462 25.92 396.47 24.448C399.5 22.9547 402.892 22.208 406.647 22.208C410.401 22.208 413.782 22.9547 416.79 24.448C419.82 25.92 422.209 27.968 423.959 30.592C425.729 33.1947 426.614 36.2027 426.614 39.616C426.614 43.0293 425.729 46.048 423.959 48.672C422.209 51.2747 419.82 53.3227 416.79 54.816C413.782 56.288 410.401 57.024 406.647 57.024ZM406.647 45.76C407.735 45.76 408.737 45.504 409.655 44.992C410.572 44.4587 411.297 43.7333 411.83 42.816C412.385 41.8987 412.663 40.832 412.663 39.616C412.663 38.4 412.385 37.3333 411.83 36.416C411.297 35.4773 410.572 34.752 409.655 34.24C408.737 33.728 407.735 33.472 406.647 33.472C405.559 33.472 404.556 33.728 403.639 34.24C402.721 34.752 401.985 35.4773 401.431 36.416C400.897 37.3333 400.631 38.4 400.631 39.616C400.631 40.832 400.897 41.8987 401.431 42.816C401.985 43.7333 402.721 44.4587 403.639 44.992C404.556 45.504 405.559 45.76 406.647 45.76Z" fill="white"/>
<path d="M366.392 56C364.735 56 363.392 54.6569 363.392 53V35.904C363.392 34.4902 362.245 33.344 360.832 33.344C359.418 33.344 358.272 32.1979 358.272 30.784V25.792C358.272 24.3782 359.418 23.232 360.832 23.232C362.245 23.232 363.392 22.0859 363.392 20.672V17.536C363.392 14.0373 363.957 10.976 365.087 8.352C366.239 5.70667 367.861 3.65867 369.952 2.208C372.064 0.736 374.57 0 377.472 0C379.306 0 381.141 0.298667 382.975 0.896C383.92 1.19249 384.791 1.54551 385.588 1.95506C386.854 2.60518 387.193 4.17831 386.561 5.45287L384.377 9.84958C383.639 11.3365 381.811 11.8556 380.152 11.7828C380.048 11.7783 379.944 11.776 379.84 11.776C378.794 11.776 378.048 12.0533 377.6 12.608C377.173 13.1413 376.917 13.8773 376.832 14.816C376.746 15.7547 376.704 16.8107 376.704 17.984V20.232C376.704 21.8889 378.047 23.232 379.704 23.232H380.999C382.656 23.232 383.999 24.5751 383.999 26.232V30.344C383.999 32.0009 382.656 33.344 380.999 33.344H379.704C378.047 33.344 376.704 34.6872 376.704 36.344V53C376.704 54.6569 375.36 56 373.704 56H366.392Z" fill="white"/>
<path d="M344.817 57.024C341.02 57.024 338.054 55.84 335.921 53.472C333.809 51.104 332.753 47.808 332.753 43.584V35.904C332.753 34.4901 331.607 33.344 330.193 33.344C328.779 33.344 327.633 32.1978 327.633 30.784V25.792C327.633 24.3781 328.779 23.232 330.193 23.232C331.607 23.232 332.753 22.0858 332.753 20.672V13.944C332.753 12.2871 334.096 10.944 335.753 10.944H343.065C344.722 10.944 346.065 12.2871 346.065 13.944V20.232C346.065 21.8888 347.408 23.232 349.065 23.232H349.593C351.25 23.232 352.593 24.5751 352.593 26.232V30.344C352.593 32.0008 351.25 33.344 349.593 33.344H349.065C347.408 33.344 346.065 34.6871 346.065 36.344V42.56C346.065 43.4133 346.236 44.0533 346.577 44.48C346.94 44.9066 347.462 45.12 348.145 45.12C349.56 45.12 351.241 45.5105 351.662 46.8611L353.38 52.3797C353.813 53.7701 353.191 55.2936 351.817 55.777C351.114 56.0245 350.38 56.2375 349.617 56.416C347.974 56.8213 346.374 57.024 344.817 57.024Z" fill="white"/>
<path d="M299.877 56C298.22 56 296.877 54.6569 296.877 53V26.232C296.877 24.5752 298.22 23.232 299.877 23.232H309.018C309.665 23.232 310.189 23.7564 310.189 24.4032C310.189 25.5208 311.698 26.0743 312.553 25.3539C313.305 24.7197 314.106 24.1724 314.957 23.712C316.792 22.7093 318.68 22.208 320.621 22.208C321.88 22.208 323.213 22.4213 324.621 22.848C325.08 22.987 325.512 23.1395 325.919 23.3056C327.262 23.8546 327.639 25.4575 326.993 26.7573L323.955 32.8673C323.221 34.3449 321.291 34.7938 319.725 34.272C318.658 33.9093 317.677 33.728 316.781 33.728C315.65 33.728 314.573 34.0267 313.549 34.624C312.546 35.2 311.736 35.9573 311.117 36.896C310.498 37.8347 310.189 38.848 310.189 39.936V53C310.189 54.6569 308.846 56 307.189 56H299.877Z" fill="white"/>
<path d="M270.146 57.024C266.392 57.024 263 56.288 259.97 54.816C256.962 53.3227 254.573 51.2747 252.802 48.672C251.053 46.048 250.178 43.0293 250.178 39.616C250.178 36.2027 251.053 33.1947 252.802 30.592C254.573 27.968 256.962 25.92 259.97 24.448C263 22.9547 266.392 22.208 270.146 22.208C273.901 22.208 277.282 22.9547 280.29 24.448C283.32 25.92 285.709 27.968 287.458 30.592C289.229 33.1947 290.115 36.2027 290.115 39.616C290.115 43.0293 289.229 46.048 287.458 48.672C285.709 51.2747 283.32 53.3227 280.29 54.816C277.282 56.288 273.901 57.024 270.146 57.024ZM270.146 45.76C271.234 45.76 272.237 45.504 273.155 44.992C274.072 44.4587 274.797 43.7333 275.331 42.816C275.885 41.8987 276.163 40.832 276.163 39.616C276.163 38.4 275.885 37.3333 275.331 36.416C274.797 35.4773 274.072 34.752 273.155 34.24C272.237 33.728 271.234 33.472 270.146 33.472C269.058 33.472 268.056 33.728 267.138 34.24C266.221 34.752 265.485 35.4773 264.931 36.416C264.397 37.3333 264.13 38.4 264.13 39.616C264.13 40.832 264.397 41.8987 264.931 42.816C265.485 43.7333 266.221 44.4587 267.138 44.992C268.056 45.504 269.058 45.76 270.146 45.76Z" fill="white"/>
<path d="M214.312 56C212.656 56 211.312 54.6569 211.312 53V6.20001C211.312 4.54316 212.656 3.20001 214.312 3.20001H232.176C235.59 3.20001 238.683 3.79735 241.456 4.99201C244.23 6.18668 246.438 8.01068 248.08 10.464C249.723 12.9173 250.544 16.0427 250.544 19.84C250.544 23.616 249.723 26.7947 248.08 29.376C246.438 31.936 244.23 33.8773 241.456 35.2C238.683 36.5227 235.59 37.184 232.176 37.184H228.392C226.736 37.184 225.392 38.5272 225.392 40.184V53C225.392 54.6569 224.049 56 222.392 56H214.312ZM225.392 23.872C225.392 25.0738 226.367 26.048 227.568 26.048C228.827 26.048 230.075 25.9093 231.312 25.632C232.571 25.3547 233.616 24.8107 234.448 24C235.28 23.168 235.696 21.9307 235.696 20.288C235.696 18.624 235.28 17.376 234.448 16.544C233.616 15.6907 232.571 15.1253 231.312 14.848C230.075 14.5493 228.827 14.4 227.568 14.4C226.367 14.4 225.392 15.3743 225.392 16.576V23.872Z" fill="white"/>
<path d="M149.627 56C147.97 56 146.627 54.6569 146.627 53V3.96002C146.627 2.30317 147.97 0.960022 149.627 0.960022H156.939C158.596 0.960022 159.939 2.30317 159.939 3.96002V27.1968C159.939 29.8408 163.111 31.1919 165.018 29.36L170.524 24.0688C171.083 23.5319 171.828 23.232 172.603 23.232H181.289C183.973 23.232 185.306 26.4865 183.394 28.3696L174.076 37.545C172.859 38.7436 172.887 40.7153 174.138 41.8789L183.73 50.8036C185.725 52.6599 184.412 56 181.686 56H173.389C172.641 56 171.921 55.7209 171.368 55.2172L164.96 49.3764C163.034 47.6207 159.939 48.9873 159.939 51.5936V53C159.939 54.6569 158.596 56 156.939 56H149.627Z" fill="white"/>
<path d="M102.877 56C101.22 56 99.877 54.6569 99.877 53V26.232C99.877 24.5752 101.22 23.232 102.877 23.232H112.222C112.756 23.232 113.189 23.6649 113.189 24.1988C113.189 25.0253 114.178 25.4912 114.868 25.0357C115.934 24.331 117.082 23.7511 118.309 23.296C120.229 22.5707 122.17 22.208 124.133 22.208C126.629 22.208 128.858 22.7733 130.821 23.904C132.805 25.0347 134.373 26.5707 135.525 28.512C136.677 30.432 137.253 32.6187 137.253 35.072V53C137.253 54.6569 135.91 56 134.253 56H126.941C125.284 56 123.941 54.6569 123.941 53V37.952C123.941 36.3093 123.45 34.9973 122.469 34.016C121.488 33.0133 120.186 32.512 118.565 32.512C117.498 32.512 116.56 32.736 115.749 33.184C114.938 33.632 114.309 34.2613 113.861 35.072C113.413 35.8827 113.189 36.8427 113.189 37.952V53C113.189 54.6569 111.846 56 110.189 56H102.877Z" fill="white"/>
<path d="M66.506 57.024C63.5193 57.024 60.7993 56.2773 58.346 54.784C55.8927 53.2693 53.9407 51.2 52.49 48.576C51.0393 45.9307 50.314 42.9227 50.314 39.552C50.314 36.288 50.9967 33.3547 52.362 30.752C53.7487 28.128 55.658 26.048 58.09 24.512C60.522 22.976 63.3273 22.208 66.506 22.208C68.3833 22.208 70.186 22.4853 71.914 23.04C73.1648 23.4214 74.3012 23.9227 75.323 24.544C75.8168 24.8443 76.49 24.5064 76.49 23.9284C76.49 23.5438 76.8018 23.232 77.1864 23.232H86.802C88.4589 23.232 89.802 24.5752 89.802 26.232V53C89.802 54.6569 88.4589 56 86.802 56H77.3356C76.8686 56 76.49 55.6214 76.49 55.1544C76.49 54.4534 75.6782 54.0478 75.0878 54.4257C73.9709 55.1407 72.8276 55.7081 71.658 56.128C70.0153 56.7253 68.298 57.024 66.506 57.024ZM70.602 45.76C71.7967 45.76 72.8527 45.4933 73.77 44.96C74.7087 44.4267 75.434 43.7013 75.946 42.784C76.4793 41.8453 76.746 40.7893 76.746 39.616C76.746 38.4213 76.4793 37.3653 75.946 36.448C75.4127 35.5307 74.6873 34.8053 73.77 34.272C72.8527 33.7387 71.7967 33.472 70.602 33.472C69.4287 33.472 68.3727 33.7387 67.434 34.272C66.4953 34.8053 65.7487 35.5413 65.194 36.48C64.6607 37.3973 64.394 38.4427 64.394 39.616C64.394 40.7893 64.6607 41.8453 65.194 42.784C65.7273 43.7013 66.4633 44.4267 67.402 44.96C68.3407 45.4933 69.4073 45.76 70.602 45.76Z" fill="white"/>
<path d="M3 56C1.34314 56 0 54.6569 0 53V6.20001C0 4.54316 1.34315 3.20001 3 3.20001H11.08C12.7369 3.20001 14.08 4.54316 14.08 6.20001V20.36C14.08 22.0169 15.4231 23.36 17.08 23.36H24.648C26.3048 23.36 27.648 22.0169 27.648 20.36V6.20002C27.648 4.54316 28.9911 3.20001 30.648 3.20001H38.728C40.3849 3.20001 41.728 4.54316 41.728 6.20001V53C41.728 54.6569 40.3849 56 38.728 56H30.648C28.9911 56 27.648 54.6569 27.648 53V38.712C27.648 37.0552 26.3048 35.712 24.648 35.712H17.08C15.4231 35.712 14.08 37.0552 14.08 38.712V53C14.08 54.6569 12.7369 56 11.08 56H3Z" fill="white"/>
</svg>
